<svg xmlns="http://www.w3.org/2000/svg" width="400" height="99" fill="none"><path fill="#fff" fill-rule="evenodd" d="M42.746 98.343c13.257 0 23.695-3.202 31.315-9.604 7.62-6.403 11.431-15.15 11.431-26.243V0H57.22v61.414c0 4.509-1.285 8.048-3.855 10.618-2.57 2.57-6.11 3.856-10.619 3.856-4.51 0-8.049-1.285-10.619-3.856-2.57-2.57-3.855-6.11-3.855-10.618V0H0v62.496c0 11.092 3.81 19.84 11.43 26.243 7.62 6.402 18.06 9.604 31.316 9.604zm83.734-2.3V37.335h.27c.451 1.263 2.3 5.095 5.546 11.498l27.055 47.21h29.219V0h-26.108v58.843h-.271c-1.082-2.976-3.021-7.124-5.816-12.445L130.944 0h-30.572v96.043h26.108zm125.803-73.858v73.858h-28.272V22.185h-26.649V0h81.569v22.185h-26.648zM362.8 96.043V74.805h-43.693l41.529-55.732V0h-72.912v21.508h39.905L285.695 76.97v19.073H362.8zM400 70.477v25.566h-27.054V70.477H400z" clip-rule="evenodd"/></svg>